<?xml version="1.0" encoding="UTF-8"?>
<svg id="Layer_1" data-name="Layer 1" xmlns="http://www.w3.org/2000/svg" xmlns:xlink="http://www.w3.org/1999/xlink" viewBox="0 0 192 192">
  <!-- Color fallbacks are generated from src/app/globals.css by pnpm theme:sync. -->
  <defs>
    <style>
      .cls-1 {
        fill: var(--color-brand, #FF4D1D);
      }

      .cls-1, .cls-2, .cls-3 {
        stroke-width: 0px;
      }

      .cls-2 {
        fill: none;
      }

      .cls-4 {
        clip-path: url(#clippath);
      }

      .cls-3 {
        fill: var(--color-logo-light, #FFF9DA);
      }
    </style>
    <clipPath id="clippath">
      <rect class="cls-2" x="0" width="192" height="192"/>
    </clipPath>
  </defs>
  <g class="cls-4">
    <rect class="cls-1" x="0" width="192" height="192"/>
    <path class="cls-3" d="M140.64,132.36c-.21.13-.41.25-.6.37-.1.06-.19.12-.28.17-6.06,3.72-23.48,10.92-60,2.73-16.68-3.74-27.45-5.66-34.25-6.64-1.18-.17-2.76-.38-2.76-.38l-6.25-17.44,43.57,1.68-.17,6.6,31.04.83.17-6.76h7.96v-10.08h-.48l-92-2.46,5.53-14.31h65.63c5.4,0,9.78-4.38,9.78-9.78v-1.63H39.7l4.84-14.69s34.01-4.76,42.06-5.43c7.04-.58,27.69-7.11,47.83,3.51,1.64,1,3.78,2.33,6.27,3.91.15.09.29.19.45.28,25.57,16.23,25.29,53.65-.5,69.52Z"/>
  </g>
</svg>